<svg width="18" height="18" viewBox="0 0 18 18" fill="none" xmlns="http://www.w3.org/2000/svg">
<path d="M15.3967 14.9779H12.7972V10.8988C12.7972 9.92615 12.7769 8.67611 11.4379 8.67611C10.0824 8.67611 9.87587 9.73117 9.87587 10.8269V14.9774H7.27309V6.59015H9.77317V7.73419H9.80667C10.156 7.07347 11.0056 6.3787 12.2732 6.3787C14.9101 6.3787 15.3994 8.1148 15.3994 10.3721V14.9774L15.3967 14.9779ZM4.33254 5.44392C3.49388 5.44392 2.82162 4.76563 2.82162 3.93026C2.82162 3.09763 3.49662 2.42044 4.33254 2.42044C5.16846 2.42044 5.84566 3.09763 5.84566 3.93026C5.84566 4.76563 5.16846 5.44392 4.33254 5.44392ZM5.6364 14.9779H3.02813V6.5907H5.6364V14.9779ZM16.7016 0H1.72098C1.00534 0 0.424805 0.566251 0.424805 1.26706V16.3087C0.424805 17.0095 1.00534 17.5758 1.72098 17.5758H16.6989C17.4134 17.5758 18 17.0095 18 16.3087V1.26706C18 0.566251 17.4134 0 16.6989 0L16.7016 0Z" fill="#26403A"/>
</svg>
