<svg width="19" height="19" viewBox="0 0 19 19" fill="none" xmlns="http://www.w3.org/2000/svg">
<path d="M8.96176 2.375H4.02968C2.45426 2.375 1.6626 3.17458 1.6626 4.76583V17.4167H5.9376V14.4479C5.9376 14.2904 6.00015 14.1394 6.1115 14.0281C6.22285 13.9167 6.37388 13.8542 6.53135 13.8542C6.68882 13.8542 6.83984 13.9167 6.95119 14.0281C7.06254 14.1394 7.1251 14.2904 7.1251 14.4479V17.4167H11.3209V4.76583C11.3209 3.17458 10.5372 2.375 8.96176 2.375ZM8.51051 10.0938H4.59176C4.26718 10.0938 3.99801 9.82458 3.99801 9.5C3.99801 9.17542 4.26718 8.90625 4.59176 8.90625H8.51051C8.8351 8.90625 9.10426 9.17542 9.10426 9.5C9.10426 9.82458 8.8351 10.0938 8.51051 10.0938ZM8.51051 7.125H4.59176C4.26718 7.125 3.99801 6.85583 3.99801 6.53125C3.99801 6.20667 4.26718 5.9375 4.59176 5.9375H8.51051C8.8351 5.9375 9.10426 6.20667 9.10426 6.53125C9.10426 6.85583 8.8351 7.125 8.51051 7.125Z" fill="white"/>
<path d="M18.2082 16.8237H16.4111V14.4487C17.1632 14.2033 17.7094 13.4987 17.7094 12.6675V11.0841C17.7094 10.047 16.8623 9.19995 15.8253 9.19995C14.7882 9.19995 13.9411 10.047 13.9411 11.0841V12.6675C13.9411 13.4908 14.4794 14.1875 15.2157 14.4408V16.8237H0.791504C0.466921 16.8237 0.197754 17.0929 0.197754 17.4175C0.197754 17.742 0.466921 18.0112 0.791504 18.0112H15.7778C15.7936 18.0112 15.8015 18.0191 15.8173 18.0191C15.8332 18.0191 15.8411 18.0112 15.8569 18.0112H18.2082C18.5328 18.0112 18.8019 17.742 18.8019 17.4175C18.8019 17.0929 18.5328 16.8237 18.2082 16.8237Z" fill="white"/>
</svg>
