<svg width="19" height="19" viewBox="0 0 19 19" fill="none" xmlns="http://www.w3.org/2000/svg">
<g clip-path="url(#clip0_319_824)">
<path d="M9.50016 12.4292V12.5163C9.50016 12.7379 9.326 12.9121 9.10433 12.9121H1.97933C1.75766 12.9121 1.5835 12.7379 1.5835 12.5163V12.4292C1.5835 11.0358 1.93183 10.6875 3.341 10.6875H7.74266C9.15183 10.6875 9.50016 11.0358 9.50016 12.4292ZM1.97933 13.703C1.75766 13.703 1.5835 13.8771 1.5835 14.0988V15.6742C1.5835 17.0675 1.93183 17.4159 3.341 17.4159H7.74266C9.15183 17.4159 9.50016 17.0675 9.50016 15.6742V14.0988C9.50016 13.8771 9.326 13.703 9.10433 13.703H1.97933Z" fill="white"/>
<path d="M17.4168 11.8749C17.4168 14.9387 14.9389 17.4166 11.8752 17.4166L12.7064 16.0312M1.5835 7.12492C1.5835 4.06117 4.06141 1.58325 7.12516 1.58325L6.29391 2.96867" stroke="white" stroke-width="1.5" stroke-linecap="round" stroke-linejoin="round"/>
<path d="M14.646 8.70825C15.1138 8.70825 15.5771 8.61611 16.0093 8.43707C16.4415 8.25804 16.8343 7.99563 17.1651 7.66482C17.4959 7.33401 17.7583 6.94128 17.9373 6.50906C18.1163 6.07684 18.2085 5.61359 18.2085 5.14575C18.2085 4.67792 18.1163 4.21466 17.9373 3.78244C17.7583 3.35022 17.4959 2.95749 17.1651 2.62668C16.8343 2.29588 16.4415 2.03346 16.0093 1.85443C15.5771 1.6754 15.1138 1.58325 14.646 1.58325C13.7012 1.58325 12.795 1.95859 12.1269 2.62668C11.4588 3.29478 11.0835 4.20092 11.0835 5.14575C11.0835 6.09059 11.4588 6.99672 12.1269 7.66482C12.795 8.33292 13.7012 8.70825 14.646 8.70825Z" fill="white"/>
</g>
<defs>
<clipPath id="clip0_319_824">
<rect width="19" height="19" fill="white"/>
</clipPath>
</defs>
</svg>
